<svg xmlns="http://www.w3.org/2000/svg" xmlns:xlink="http://www.w3.org/1999/xlink" viewBox="0 0 906.23 516.04">
  <defs>
    <style type="text/css">.a{fill:#dcebeb;}</style>
  </defs>
  <g class="a">
    <!-- LIMA -->
    <path d="M728.2,293.3v28.3h16.3v8.5h-25.9v-36.8H728.2z"/>
    <path d="M749.3,295.3c0-1.4,0.5-2.6,1.5-3.6c1-1,2.3-1.5,3.7-1.5s2.7,0.5,3.7,1.5c1,1,1.5,2.2,1.5,3.6s-0.5,2.6-1.5,3.6c-1,1-2.3,1.5-3.7,1.5s-2.7-0.5-3.7-1.5C749.8,297.8,749.3,296.6,749.3,295.3z M750,330.2v-26.8h9.2v26.8H750z"/>
    <path d="M774,303.4v2.5c0.6-0.9,1.6-1.7,3.1-2.2c1.4-0.5,2.9-0.8,4.4-0.8c3.9,0,6.7,1.2,8.5,3.5c0.7-1,1.8-1.9,3.3-2.5s3.1-1,4.7-1c3.7,0,6.7,1,8.7,3.1s3.1,4.9,3.1,8.5v15.7h-9.2v-13.5c0-2.1-0.3-3.6-1-4.5s-1.9-1.3-3.6-1.3c-1.4,0-2.7,0.3-4,1c0.1,0.8,0.2,1.7,0.2,2.7v15.7h-9.2v-13.5c0-2.1-0.3-3.6-1-4.5s-1.9-1.3-3.6-1.3c-1.3,0-2.6,0.3-3.8,1v18.4h-9.2v-26.8H774z"/>
    <path d="M818.1,306.8c2.4-2.6,5.6-4,9.5-4c3.4,0,5.8,0.9,7.2,2.6v-2.1h8.7v26.8h-8.7v-2.1c-1.4,1.8-3.8,2.6-7.2,2.6c-3.9,0-7.1-1.3-9.5-4c-2.4-2.7-3.6-6-3.6-10C814.5,312.8,815.7,309.5,818.1,306.8z M825.4,321.1c1.1,1.1,2.4,1.7,4.1,1.7c1.6,0,3.2-0.5,4.8-1.4v-9.2c-1.5-0.9-3.1-1.4-4.8-1.4c-1.7,0-3.1,0.6-4.1,1.7c-1.1,1.1-1.6,2.6-1.6,4.3C823.9,318.5,824.4,320,825.4,321.1z"/>
    <!-- GAME -->
    <path d="M717.2,359.3c0-5.4,2-10,6-13.7c4-3.7,9.2-5.6,15.6-5.6c4.8,0,9.1,0.9,12.9,2.7v9c-3.9-1.8-8.2-2.8-12.9-2.8c-3.7,0-6.5,0.9-8.6,2.8c-2.1,1.9-3.1,4.4-3.1,7.5c0,3,0.9,5.5,2.8,7.4c1.9,1.9,4.3,2.9,7.2,2.9c2.3,0,4.3-0.5,6-1.6c1.6-1.1,2.8-2.6,3.5-4.5h-10v-7.8h19.8c0.1,1,0.2,2.3,0.2,3.7c0,5.5-1.8,10-5.3,13.7c-3.6,3.7-8.3,5.5-14.2,5.5c-5.7,0-10.5-1.9-14.3-5.6S717.2,364.6,717.2,359.3z"/>
    <path d="M764.3,354.3c2.4-2.6,5.6-4,9.5-4c3.4,0,5.8,0.9,7.2,2.6v-2.1h8.7v26.8H781v-2.1c-1.4,1.8-3.8,2.6-7.2,2.6c-3.9,0-7.1-1.3-9.5-4c-2.4-2.7-3.6-6-3.6-10C760.7,360.3,761.9,357,764.3,354.3z M771.7,368.6c1.1,1.1,2.4,1.7,4.1,1.7c1.6,0,3.2-0.5,4.8-1.4v-9.2c-1.5-0.9-3.1-1.4-4.8-1.4c-1.7,0-3.1,0.6-4.1,1.7c-1.1,1.1-1.6,2.6-1.6,4.3C770.1,366,770.6,367.5,771.7,368.6z"/>
    <path d="M804.4,350.9v2.5c0.6-0.9,1.6-1.7,3.1-2.2c1.4-0.5,2.9-0.8,4.4-0.8c3.8,0,6.7,1.2,8.5,3.5c0.7-1,1.8-1.9,3.3-2.5c1.6-0.7,3.1-1,4.7-1c3.7,0,6.7,1,8.7,3.1s3.1,4.9,3.1,8.5v15.7h-9.2v-13.5c0-2.1-0.3-3.6-1-4.5c-0.7-0.9-1.9-1.3-3.6-1.3c-1.4,0-2.7,0.3-4,1c0.1,0.8,0.2,1.7,0.2,2.7v15.7h-9.2v-13.5c0-2.1-0.3-3.6-1-4.5s-1.9-1.3-3.6-1.3c-1.3,0-2.6,0.3-3.8,1v18.4h-9.2v-26.8H804.4z"/>
    <path d="M873.7,364.3c0,0.9-0.1,1.8-0.2,2.6H854c1.1,2.5,3.8,3.7,8,3.7c2.9,0,5.8-0.5,8.7-1.5v7.4c-2.7,1.1-5.9,1.7-9.5,1.7c-5,0-8.9-1.3-11.9-3.8s-4.4-5.9-4.4-10.2c0-4,1.4-7.3,4.1-10c2.7-2.6,6.2-4,10.3-4c4.1,0,7.6,1.3,10.3,4C872.4,357,873.7,360.3,873.7,364.3z M859.4,357.8c-2.8,0-4.7,1.2-5.5,3.7h10.8C863.9,359.1,862.1,357.8,859.4,357.8z"/>
    <!-- JAM -->
    <path d="M723.4,417.1c4.4,0,6.7-1.9,6.7-5.8v-23h9.6v24.1c0,4.1-1.3,7.4-3.8,9.7c-2.5,2.4-6,3.6-10.3,3.6c-2.5,0-5.2-0.3-8-0.9v-8.5C719.7,416.9,721.7,417.1,723.4,417.1z"/>
    <path d="M748.6,401.8c2.4-2.6,5.6-4,9.5-4c3.4,0,5.8,0.9,7.2,2.6v-2.1h8.7v26.8h-8.7v-2.1c-1.4,1.8-3.8,2.6-7.2,2.6c-3.9,0-7.1-1.3-9.5-4c-2.4-2.7-3.6-6-3.6-10C745,407.8,746.2,404.5,748.6,401.8z M755.9,416.1c1.1,1.1,2.4,1.7,4.1,1.7c1.6,0,3.2-0.5,4.8-1.4v-9.2c-1.5-0.9-3.1-1.4-4.8-1.4c-1.7,0-3.1,0.6-4.1,1.7c-1.1,1.1-1.6,2.6-1.6,4.3C754.3,413.6,754.9,415,755.9,416.1z"/>
    <path d="M788.7,398.4v2.5c0.6-0.9,1.6-1.7,3.1-2.2c1.4-0.5,2.9-0.8,4.4-0.8c3.9,0,6.7,1.2,8.5,3.5c0.7-1,1.8-1.9,3.3-2.5s3.1-1,4.7-1c3.7,0,6.7,1,8.7,3.1s3.1,4.9,3.1,8.5v15.7h-9.2v-13.5c0-2.1-0.3-3.6-1-4.5s-1.9-1.3-3.6-1.3c-1.4,0-2.7,0.3-4,1c0.1,0.8,0.2,1.7,0.2,2.7v15.7h-9.2v-13.5c0-2.1-0.3-3.6-1-4.5s-1.9-1.3-3.6-1.3c-1.3,0-2.6,0.3-3.8,1v18.4H780v-26.8H788.7z"/>
  </g>
  <g class="a">
    <path d="M425.5,149.9h73.8v64.7h-9.2C454.4,214.5,425.5,185.6,425.5,149.9L425.5,149.9z"/>
    <path d="M408,331.1c-49.9,0-90.4-41-90.4-90.9c0-49.9,40.5-90.4,90.4-90.4V331.1z"/>
    <path d="M182.5,149.9c-21.4,0.4-38.3,18.2-38.3,39.6v98.4c0,23.8,19.3,43.2,43.2,43.2h34.8V188.9c0-21.5-17.5-39-39-39C182.9,149.9,182.7,149.9,182.5,149.9z"/>
    <path d="M659.4,149.9c21.4,0.4,38.2,18.4,38.2,39.7v77.1c0,35.5-28.7,64.3-64.2,64.4h-13.8V188.9c0.1-21.6,17.6-39,39.2-39C659,149.9,659.2,149.9,659.4,149.9z"/>
    <path d="M425.5,241.3v89.8h27.6c27.2,0,49.3-22.1,50.4-49c0-0.1,0-16.2,0-28.2c0-7-5.7-12.7-12.7-12.7l0,0L425.5,241.3z"/>
    <path d="M590,241.3h-65c0,0,0,41.2,0,41.4c1.1,27.1,23.3,48.4,50.4,48.4h27.3v-77.2C602.7,246.9,597,241.3,590,241.3C590,241.3,590,241.3,590,241.3z"/>
    <path d="M239,241.3v89.8h5.9c27.2,0,49.3-22.1,50.4-49c0-0.1,0-16.2,0-28.2c0-7-5.7-12.7-12.6-12.7c0,0,0,0,0,0L239,241.3z"/>
  </g>
</svg>  