<svg xmlns="http://www.w3.org/2000/svg" xmlns:xlink="http://www.w3.org/1999/xlink" viewBox="0 0 841.89 480.03">
<defs>
  <style>.b{fill:#dcebeb;}</style>
</defs>
  <title>logo-light</title>
  <path class="b" d="M424.92,149.43h73.83v64.66h-9.17a64.66,64.66,0,0,1-64.66-64.66ZM408,149.38a90.35,90.35,0,0,0-90.36,90.36c0,49.9,40.45,90.91,90.36,90.91Zm-225.48.06c-21.36.35-38.3,18.23-38.3,39.59v98.44a43.18,43.18,0,0,0,43.18,43.18h34.75V188.39A39,39,0,0,0,182.53,149.44Zm437.14,39V330.65h13.76a64.4,64.4,0,0,0,64.23-64.37V189.22c0-21.37-16.88-39.39-38.24-39.74A39.06,39.06,0,0,0,619.67,188.43ZM424.92,240.82v89.83h27.59c27.19,0,49.34-22.06,50.39-49,0-.13,0-16.22,0-28.16a12.66,12.66,0,0,0-12.66-12.68Zm165.17,0h-65s0,41.18,0,41.39a50.43,50.43,0,0,0,50.39,48.44h27.24V253.49A12.66,12.66,0,0,0,590.09,240.82Zm-351,0v89.83h5.85c27.18,0,49.33-22.06,50.38-49,0-.13,0-16.22,0-28.16a12.66,12.66,0,0,0-12.66-12.68Z"/><path class="b" d="M424.92,149.43h73.83v64.66h-9.17a64.66,64.66,0,0,1-64.66-64.66ZM408,149.38a90.35,90.35,0,0,0-90.36,90.36c0,49.9,40.45,90.91,90.36,90.91Zm-225.48.06c-21.36.35-38.3,18.23-38.3,39.59v98.44a43.18,43.18,0,0,0,43.18,43.18h34.75V188.39A39,39,0,0,0,182.53,149.44Zm437.14,39V330.65h13.76a64.4,64.4,0,0,0,64.23-64.37V189.22c0-21.37-16.88-39.39-38.24-39.74A39.06,39.06,0,0,0,619.67,188.43ZM424.92,240.82v89.83h27.59c27.19,0,49.34-22.06,50.39-49,0-.13,0-16.22,0-28.16a12.66,12.66,0,0,0-12.66-12.68Zm165.17,0h-65s0,41.18,0,41.39a50.43,50.43,0,0,0,50.39,48.44h27.24V253.49A12.66,12.66,0,0,0,590.09,240.82Zm-351,0v89.83h5.85c27.18,0,49.33-22.06,50.38-49,0-.13,0-16.22,0-28.16a12.66,12.66,0,0,0-12.66-12.68Z"/>
</svg>