<svg xmlns="http://www.w3.org/2000/svg" xmlns:xlink="http://www.w3.org/1999/xlink" viewBox="0 0 841.89 480.03">
<defs>
  <style>.b{fill:#383838;}.c{fill:#25c1bc;}.d{fill:url(#a);}</style>
  <linearGradient id="a" x1="165.6" y1="156.53" x2="691.61" y2="328.4" gradientUnits="userSpaceOnUse">
    <stop offset="0" stop-color="#006991"/>
    <stop offset="0.35" stop-color="#007e8e"/>
    <stop offset="0.51" stop-color="#009192"/>
    <stop offset="0.66" stop-color="#00a596"/>
    <stop offset="0.84" stop-color="#00b899"/>
    <stop offset="1" stop-color="#00cc9c"/>
  </linearGradient>
</defs>
<title>logo-color</title>
<path class="b" d="M425.5,149.88h73.82v64.66h-9.17a64.65,64.65,0,0,1-64.65-64.65Z"/><path class="b" d="M408,331.11c-49.91,0-90.36-41-90.36-90.92A90.36,90.36,0,0,1,408,149.83Z"/><path class="c" d="M182.53,149.89c-21.36.36-38.3,18.23-38.3,39.6v98.44a43.19,43.19,0,0,0,43.18,43.18h34.75V188.85A39,39,0,0,0,182.53,149.89Z"/><path class="b" d="M182.53,149.89c-21.36.36-38.3,18.23-38.3,39.6v98.44a43.19,43.19,0,0,0,43.18,43.18h34.75V188.85A39,39,0,0,0,182.53,149.89Z"/><path class="b" d="M659.37,149.93c21.36.36,38.23,18.38,38.23,39.74v77.06a64.4,64.4,0,0,1-64.22,64.38H619.61V188.89A39.08,39.08,0,0,1,659.37,149.93Z"/><path class="b" d="M425.5,241.28v89.83h27.58c27.19,0,49.34-22.06,50.39-49,0-.13,0-16.22,0-28.17a12.67,12.67,0,0,0-12.67-12.67Z"/><path class="b" d="M590,241.28H525s0,41.18.05,41.39a50.43,50.43,0,0,0,50.38,48.44H602.7V253.94A12.66,12.66,0,0,0,590,241.28Z"/><path class="b" d="M239,241.28v89.83h5.85c27.18,0,49.33-22.06,50.38-49,0-.13,0-16.22,0-28.17a12.66,12.66,0,0,0-12.66-12.67Z"/><path class="d" d="M425.5,149.88h73.82v64.66h-9.17a64.65,64.65,0,0,1-64.65-64.65Z"/><path class="d" d="M425.5,149.88h73.82v64.66h-9.17a64.65,64.65,0,0,1-64.65-64.65Z"/><path class="d" d="M425.5,149.88h73.82v64.66h-9.17a64.65,64.65,0,0,1-64.65-64.65Z"/><path class="d" d="M408,331.11c-49.91,0-90.36-41-90.36-90.92A90.36,90.36,0,0,1,408,149.83Z"/><path class="d" d="M408,331.11c-49.91,0-90.36-41-90.36-90.92A90.36,90.36,0,0,1,408,149.83Z"/><path class="d" d="M408,331.11c-49.91,0-90.36-41-90.36-90.92A90.36,90.36,0,0,1,408,149.83Z"/><path class="d" d="M182.53,149.89c-21.36.36-38.3,18.23-38.3,39.6v98.44a43.19,43.19,0,0,0,43.18,43.18h34.75V188.85A39,39,0,0,0,182.53,149.89Z"/><path class="d" d="M182.53,149.89c-21.36.36-38.3,18.23-38.3,39.6v98.44a43.19,43.19,0,0,0,43.18,43.18h34.75V188.85A39,39,0,0,0,182.53,149.89Z"/><path class="d" d="M182.53,149.89c-21.36.36-38.3,18.23-38.3,39.6v98.44a43.19,43.19,0,0,0,43.18,43.18h34.75V188.85A39,39,0,0,0,182.53,149.89Z"/><path class="d" d="M659.37,149.93c21.36.36,38.23,18.38,38.23,39.74v77.06a64.4,64.4,0,0,1-64.22,64.38H619.61V188.89A39.08,39.08,0,0,1,659.37,149.93Z"/><path class="d" d="M659.37,149.93c21.36.36,38.23,18.38,38.23,39.74v77.06a64.4,64.4,0,0,1-64.22,64.38H619.61V188.89A39.08,39.08,0,0,1,659.37,149.93Z"/><path class="d" d="M659.37,149.93c21.36.36,38.23,18.38,38.23,39.74v77.06a64.4,64.4,0,0,1-64.22,64.38H619.61V188.89A39.08,39.08,0,0,1,659.37,149.93Z"/><path class="d" d="M425.5,241.28v89.83h27.58c27.19,0,49.34-22.06,50.39-49,0-.13,0-16.22,0-28.17a12.67,12.67,0,0,0-12.67-12.67Z"/><path class="d" d="M425.5,241.28v89.83h27.58c27.19,0,49.34-22.06,50.39-49,0-.13,0-16.22,0-28.17a12.67,12.67,0,0,0-12.67-12.67Z"/><path class="d" d="M425.5,241.28v89.83h27.58c27.19,0,49.34-22.06,50.39-49,0-.13,0-16.22,0-28.17a12.67,12.67,0,0,0-12.67-12.67Z"/><path class="d" d="M590,241.28H525s0,41.18.05,41.39a50.43,50.43,0,0,0,50.38,48.44H602.7V253.94A12.66,12.66,0,0,0,590,241.28Z"/><path class="d" d="M590,241.28H525s0,41.18.05,41.39a50.43,50.43,0,0,0,50.38,48.44H602.7V253.94A12.66,12.66,0,0,0,590,241.28Z"/><path class="d" d="M590,241.28H525s0,41.18.05,41.39a50.43,50.43,0,0,0,50.38,48.44H602.7V253.94A12.66,12.66,0,0,0,590,241.28Z"/><path class="d" d="M239,241.28v89.83h5.85c27.18,0,49.33-22.06,50.38-49,0-.13,0-16.22,0-28.17a12.66,12.66,0,0,0-12.66-12.67Z"/><path class="d" d="M239,241.28v89.83h5.85c27.18,0,49.33-22.06,50.38-49,0-.13,0-16.22,0-28.17a12.66,12.66,0,0,0-12.66-12.67Z"/><path class="d" d="M239,241.28v89.83h5.85c27.18,0,49.33-22.06,50.38-49,0-.13,0-16.22,0-28.17a12.66,12.66,0,0,0-12.66-12.67Z"/>
</svg>