<svg xmlns="http://www.w3.org/2000/svg" xmlns:xlink="http://www.w3.org/1999/xlink" viewBox="0 0 1200 1203.93"><defs><style>.a{fill:url(#a);}.b{fill:#dcebeb;}</style><linearGradient id="a" x1="42.93" y1="47.39" x2="1125.9" y2="1125.51" gradientUnits="userSpaceOnUse"><stop offset="0" stop-color="#006991"/><stop offset="0.34" stop-color="#007e8e"/><stop offset="0.51" stop-color="#009192"/><stop offset="0.66" stop-color="#00a596"/><stop offset="0.84" stop-color="#00b899"/><stop offset="1" stop-color="#00cc9c"/></linearGradient></defs><title>favicon</title><rect class="a" width="1200" height="1203.93"/><path class="b" d="M607.23,435.33H741.44V552.87H724.77A117.54,117.54,0,0,1,607.23,435.33Zm-30.74-.1A164.27,164.27,0,0,0,412.22,599.5c0,90.72,73.55,165.27,164.27,165.27Zm-409.89.11C127.76,436,97,468.48,97,507.33V686.27a78.5,78.5,0,0,0,78.5,78.49h63.16V506.16A70.83,70.83,0,0,0,166.6,435.34Zm794.64,70.9V764.77h25c64.41,0,116.75-52.62,116.75-117V507.66c0-38.84-30.68-71.59-69.51-72.24A71,71,0,0,0,961.24,506.24Zm-354,95.23V764.76h50.15c49.42,0,89.68-40.1,91.6-89,0-.24,0-29.49.06-51.2a23,23,0,0,0-23-23Zm300.24,0H789.28s.08,74.86.1,75.24A91.68,91.68,0,0,0,881,764.77H930.5V673.08c0-.1,0-.19,0-.29v-48.3A23,23,0,0,0,907.47,601.47Zm-638.06,0v163.3h10.64c49.41,0,89.68-40.11,91.59-89.06,0-.24,0-29.49.07-51.2a23,23,0,0,0-23-23Z" transform="translate(0 -0.4)"/><path class="b" d="M607.23,435.33H741.44V552.87H724.77A117.54,117.54,0,0,1,607.23,435.33Zm-30.74-.1A164.27,164.27,0,0,0,412.22,599.5c0,90.72,73.55,165.27,164.27,165.27Zm-409.89.11C127.76,436,97,468.48,97,507.33V686.27a78.5,78.5,0,0,0,78.5,78.49h63.16V506.16A70.83,70.83,0,0,0,166.6,435.34Zm794.64,70.9V764.77h25c64.41,0,116.75-52.62,116.75-117V507.66c0-38.84-30.68-71.59-69.51-72.24A71,71,0,0,0,961.24,506.24Zm-354,95.23V764.76h50.15c49.42,0,89.68-40.1,91.6-89,0-.24,0-29.49.06-51.2a23,23,0,0,0-23-23Zm300.24,0H789.28s.08,74.86.1,75.24A91.68,91.68,0,0,0,881,764.77H930.5V673.08c0-.1,0-.19,0-.29v-48.3A23,23,0,0,0,907.47,601.47Zm-638.06,0v163.3h10.64c49.41,0,89.68-40.11,91.59-89.06,0-.24,0-29.49.07-51.2a23,23,0,0,0-23-23Z" transform="translate(0 -0.4)"/></svg>